<?xml version="1.0" encoding="iso-8859-1"?>
<!-- Generator: Adobe Illustrator 19.0.0, SVG Export Plug-In . SVG Version: 6.00 Build 0)  -->
<svg version="1.1" id="Layer_1" xmlns="http://www.w3.org/2000/svg" xmlns:xlink="http://www.w3.org/1999/xlink" x="0px" y="0px"
	 viewBox="0 0 512 512" style="enable-background:new 0 0 512 512;" xml:space="preserve">
<g>
	<g>
		<g>
			<path d="M506.469,248.76c-3.417-1.875-7.552-1.75-10.854,0.333c-54.656,34.688-149.729,45.396-188.073,48.385
				c-4.833,0.375-8.802,3.969-9.667,8.74c-3.667,20.344-21.281,35.115-41.875,35.115c-20.615,0-38.229-14.781-41.885-35.135
				c-0.865-4.771-4.833-8.365-9.667-8.75c-38.375-3.021-133.531-13.781-188.073-48.365c-3.281-2.094-7.458-2.229-10.844-0.333
				C2.115,250.625,0,254.208,0,258.094v168.573c0,23.531,19.135,42.667,42.667,42.667h426.667c23.531,0,42.667-19.135,42.667-42.667
				V258.104C512,254.219,509.885,250.635,506.469,248.76z"/>
			<path d="M469.333,106.667H362.667V85.333c0-23.531-19.135-42.667-42.667-42.667H192c-23.531,0-42.667,19.135-42.667,42.667
				v21.333H42.667C19.135,106.667,0,125.802,0,149.333v49.271c0,1.26,0.219,2.5,0.656,3.677
				c20.906,56.875,184.063,72.125,202.604,73.677c4.948,0.458,10.073-3.052,11.281-8.219c4.51-19.469,21.563-33.073,41.458-33.073
				c19.927,0,36.979,13.615,41.479,33.115c1.125,4.875,5.469,8.271,10.385,8.271c0.302,0,0.594-0.01,0.896-0.031
				c18.521-1.542,181.594-16.656,202.583-73.74c0.438-1.177,0.656-2.417,0.656-3.677v-49.271
				C512,125.802,492.865,106.667,469.333,106.667z M320,106.667H192V85.333h128V106.667z"/>
		</g>
	</g>
</g>
<g>
</g>
<g>
</g>
<g>
</g>
<g>
</g>
<g>
</g>
<g>
</g>
<g>
</g>
<g>
</g>
<g>
</g>
<g>
</g>
<g>
</g>
<g>
</g>
<g>
</g>
<g>
</g>
<g>
</g>
</svg>
